<?xml version="1.0" standalone="no"?><!DOCTYPE svg PUBLIC "-//W3C//DTD SVG 1.1//EN" "http://www.w3.org/Graphics/SVG/1.1/DTD/svg11.dtd"><svg t="1561508252398" class="icon" viewBox="0 0 1024 1024" version="1.1" xmlns="http://www.w3.org/2000/svg" p-id="12213" xmlns:xlink="http://www.w3.org/1999/xlink" width="200" height="200"><defs><style type="text/css"></style></defs><path d="M42.722095 493.120416V981.32907h469.277905V493.120416H42.722095z" fill="#1E89E2" p-id="12214"></path><path d="M444.053962 501.409014v479.920056h67.946038V501.511342c-22.61457 0-45.331468-0.102328-67.946038-0.102328z" fill="#176EB6" p-id="12215"></path><path d="M703.251724 37.65684H276.747077V501.409014h177.437394c20.158689 0 34.177676 16.270211 34.177675 35.200959v98.337564l257.765165-116.552014c0-160.348556-0.102328-320.492455-0.102328-480.841011h-42.773259z" fill="#EBB540" p-id="12216"></path><path d="M703.251724 37.65684V525.967823l42.773259-7.469971c0-160.348556-0.102328-320.492455-0.102329-480.841012h-42.67093z" fill="#CE9B2A" p-id="12217"></path><path d="M981.380234 981.32907V436.225842L740.601579 291.840512v198.926351c0 11.256121-6.242031 20.977316-15.246927 25.275108L487.645848 634.640552V981.32907H981.380234z" fill="#4FB3AB" p-id="12218"></path><path d="M981.380234 981.32907V436.225842l-36.633557-19.033077c5.935045 373.191566 5.935045 561.168782 0 564.033976H981.380234z" fill="#329C93" p-id="12219"></path><path d="M735.075847 652.138703h110.51464v-95.779355h-110.51464zM735.075847 798.365944h110.51464v-95.881683h-110.51464zM569.406216 798.365944h110.514639v-95.881683h-110.514639zM535.535525 251.523134h72.243829v-66.820426h-72.243829zM395.345658 251.523134h72.243829v-66.820426h-72.243829zM535.535525 385.163985h72.243829v-66.820425h-72.243829zM395.345658 385.163985h72.243829v-66.820425h-72.243829zM170.734886 938.658139h170.683721V810.645348H170.734886zM128.063955 639.961627h85.341861V554.619766h-85.341861zM298.747677 639.961627h85.34186V554.619766h-85.34186zM128.063955 767.974418h85.341861v-85.341861h-85.341861zM298.747677 767.974418h85.34186v-85.341861h-85.34186z" fill="#FFFFFF" p-id="12220"></path></svg>